<svg xmlns="http://www.w3.org/2000/svg" version="1.1" xmlns:xlink="http://www.w3.org/1999/xlink" xmlns:svgjs="http://svgjs.dev/svgjs" width="1500" height="1500" viewBox="0 0 1500 1500"><rect width="1500" height="1500" fill="#ffffff"></rect><g transform="matrix(0.6666666666666666,0,0,0.6666666666666666,249.2401738368057,654.0545682236788)"><svg viewBox="0 0 396 76" data-background-color="#ffffff" preserveAspectRatio="xMidYMid meet" height="287" width="1500" xmlns="http://www.w3.org/2000/svg" xmlns:xlink="http://www.w3.org/1999/xlink"><g id="tight-bounds" transform="matrix(1,0,0,1,0.31222718648103864,0.11072899826001503)"><svg viewBox="0 0 395.52 75.77854200348" height="75.77854200348" width="395.52"><g><svg viewBox="0 0 526.507187941346 100.8746638767886" height="75.77854200348" width="395.52"><g><rect width="4.88206668856808" height="100.8746638767886" x="113.32484196333286" y="0" fill="#ba3b0a" opacity="1" stroke-width="0" stroke="transparent" fill-opacity="1" class="rect-qz-0" data-fill-palette-color="primary" rx="1%" id="qz-0" data-palette-color="#ba3b0a"></rect></g><g transform="matrix(1,0,0,1,130.98718794134618,0.2509319996934991)"><svg viewBox="0 0 395.5199999999999 100.3727998774016" height="100.3727998774016" width="395.5199999999999"><g id="textblocktransform"><svg viewBox="0 0 395.5199999999999 100.3727998774016" height="100.3727998774016" width="395.5199999999999" id="textblock"><g><svg viewBox="0 0 395.5199999999999 54.13629208155523" height="54.13629208155523" width="395.5199999999999"><g transform="matrix(1,0,0,1,0,0)"><svg width="395.5199999999999" viewBox="1.75 -35.55 316.33 43.3" height="54.13629208155523" data-palette-color="#ba3b0a"><path d="M1.75 6.05L1.75 6.05 1.75-25.75Q1.75-26.8 4.55-27.9 7.35-29 10.6-29L10.6-29Q12.1-29 12.95-28.65 13.8-28.3 14-27.95L14-27.95Q14.2-27.6 14.75-24.95L14.75-24.95 15.15-24.95Q15.25-25.4 16.05-26.35 16.85-27.3 17.68-27.9 18.5-28.5 20.05-28.98 21.6-29.45 23.68-29.45 25.75-29.45 27.45-28.53 29.15-27.6 29.98-26.38 30.8-25.15 31.28-23.28 31.75-21.4 31.83-20.28 31.9-19.15 31.9-17.03 31.9-14.9 31.75-12.83 31.6-10.75 31.2-8.6 30.8-6.45 30.05-4.9 29.3-3.35 28.15-2.1L28.15-2.1Q25.85 0.4 21.4 0.4L21.4 0.4Q19.8 0.4 18.57-0.08 17.35-0.55 16.75-1.2L16.75-1.2Q15.5-2.55 15.3-3.6L15.3-3.6 15.25-4.1 14.85-4.1 15.55 0.4 15.55 6.05Q15.55 6.6 12.68 6.93 9.8 7.25 6.78 7.25 3.75 7.25 2.75 6.98 1.75 6.7 1.75 6.05ZM18.35-14.65Q18.35-18.9 17.9-20.6 17.45-22.3 16.55-22.3 15.65-22.3 15.25-21.3L15.25-21.3 15.25-8.2Q15.25-6.9 16.6-6.9L16.6-6.9Q18.35-6.9 18.35-14.65L18.35-14.65ZM44.95 0.45L44.95 0.45Q39.35 0.45 37.12-2.45 34.9-5.35 34.9-12.55L34.9-12.55 34.9-26.15Q34.9-27.15 37.85-28.08 40.8-29 44.05-29L44.05-29Q48.4-29 48.4-26.75L48.4-26.75 48.4-14.05Q48.4-10.25 48.7-8.53 49-6.8 50.2-6.8L50.2-6.8Q51.8-6.8 51.8-8.15L51.8-8.15 51.8-26.15Q51.8-27.2 54.9-28.1 58-29 61.65-29 65.3-29 65.3-27.05L65.3-27.05 65.3-1.3Q65.3-0.6 62.15-0.3 59 0 55.95 0 52.9 0 52.85-0.8L52.85-0.8 52.35-4.05 51.95-4.05Q51.5-2.25 50.15-1.1L50.15-1.1Q49.45-0.5 48.07-0.03 46.7 0.45 44.95 0.45ZM91.59 0L73.25 0Q70.75 0 69.89-0.28 69.05-0.55 69.05-1.2L69.05-1.2 69.05-32.3Q69.05-33.4 71.95-34.48 74.84-35.55 78.45-35.55L78.45-35.55Q81.65-35.55 82.65-34.2L82.65-34.2Q83-33.7 83-33.2L83-33.2 83-11.05Q89.09-11.45 92.2-11.45L92.2-11.45Q93.25-11.45 93.25-8.13 93.25-4.8 92.8-2.4 92.34 0 91.59 0L91.59 0ZM118.79 0L100.44 0Q97.94 0 97.09-0.28 96.24-0.55 96.24-1.2L96.24-1.2 96.24-32.3Q96.24-33.4 99.14-34.48 102.04-35.55 105.64-35.55L105.64-35.55Q108.84-35.55 109.84-34.2L109.84-34.2Q110.19-33.7 110.19-33.2L110.19-33.2 110.19-11.05Q116.29-11.45 119.39-11.45L119.39-11.45Q120.44-11.45 120.44-8.13 120.44-4.8 119.99-2.4 119.54 0 118.79 0L118.79 0ZM144.54-9.5L144.54-9.5 124.29-9.5Q123.74-9.5 123.34-10.43 122.94-11.35 122.94-13.08 122.94-14.8 124.04-16.57 125.14-18.35 126.19-18.35L126.19-18.35 146.29-18.35Q147.59-18.35 147.59-15.1L147.59-15.1Q147.59-13.45 146.54-11.48 145.49-9.5 144.54-9.5ZM158.79 0L158.79 0Q157.54 0 155.16 0 152.79 0 151.94-0.35 151.09-0.7 151.09-1.45L151.09-1.45 151.09-33Q151.09-34.15 154.16-34.83 157.24-35.5 160.74-35.5 164.24-35.5 165.74-34.6 167.24-33.7 167.49-32.7L167.49-32.7 170.89-19.5 171.34-19.5 174.54-32.1Q174.89-33.45 177.81-34.48 180.74-35.5 184.24-35.5 187.74-35.5 189.41-34.95 191.09-34.4 191.09-33.55L191.09-33.55 191.09-1.45Q191.09-0.8 188.24-0.4 185.39 0 181.29 0 177.19 0 177.19-1.45L177.19-1.45Q177.19-5.4 178.04-15.5L178.04-15.5 177.59-15.5 174.99-2.45Q174.84-1.7 173.76-1.35 172.69-1 170.54-1 168.39-1 167.91-1.3 167.44-1.6 167.29-2.45L167.29-2.45 164.59-15.5 164.14-15.5Q165.04-5.2 165.04-1.45L165.04-1.45Q165.04-0.15 158.79 0ZM209.64-11.3L207.99-11.3Q207.99-8.05 211.09-8.05L211.09-8.05Q212.89-8.05 215.79-9.28 218.69-10.5 218.84-10.5L218.84-10.5Q219.79-10.5 221.34-7.65 222.89-4.8 222.89-3.45L222.89-3.45Q222.89-1.5 218.89-0.5 214.89 0.5 211.06 0.5 207.24 0.5 204.66-0.1 202.09-0.7 200.46-1.63 198.84-2.55 197.61-3.9 196.39-5.25 195.78-6.48 195.19-7.7 194.84-9.2L194.84-9.2Q194.34-11.4 194.34-13.75L194.34-13.75Q194.34-22.85 199.09-26.3L199.09-26.3Q201.44-28.05 204.34-28.75 207.24-29.45 211.19-29.45L211.19-29.45Q223.84-29.45 223.84-20.65L223.84-20.65Q223.84-11.3 209.64-11.3L209.64-11.3ZM207.89-18.6L207.89-18.6 207.89-15.3Q209.34-15.3 210.26-16.45 211.19-17.6 211.19-19.25L211.19-19.25Q211.19-22.25 209.64-22.25L209.64-22.25Q207.89-22.25 207.89-18.6ZM240.33-15.8L240.33-15.8 240.33-1.2Q240.33-0.65 237.51-0.33 234.68 0 231.66 0 228.63 0 227.73-0.28 226.83-0.55 226.83-1.2L226.83-1.2 226.83-25.85Q226.83-26.8 229.61-27.9 232.38-29 235.66-29 238.93-29 239.33-27.2L239.33-27.2 239.83-24.9 240.18-24.9Q240.88-26.8 243.53-28.13 246.18-29.45 248.83-29.45 251.48-29.45 252.56-28.6 253.63-27.75 253.63-26.43 253.63-25.1 253.43-23.05 253.23-21 252.46-18.6 251.68-16.2 250.43-16.2L250.43-16.2Q249.93-16.2 247.28-16.95 244.63-17.7 242.91-17.7 241.18-17.7 240.76-17.2 240.33-16.7 240.33-15.8ZM272.83-3.3L272.83-3.3 272.83-6.2 272.43-6.2Q272.23-5.95 271.73-5.58 271.23-5.2 269.25-4.55 267.28-3.9 264.81-3.9 262.33-3.9 260.63-4.65 258.93-5.4 257.98-6.53 257.03-7.65 256.48-9.55L256.48-9.55Q255.63-12.5 255.63-17.55L255.63-17.55Q255.63-23.35 258.08-26.45L258.08-26.45Q259.03-27.7 260.91-28.58 262.78-29.45 264.93-29.45 267.08-29.45 268.48-28.98 269.88-28.5 270.58-27.85L270.58-27.85Q271.98-26.45 272.18-25.4L272.18-25.4 272.23-24.95 272.63-24.95 273.08-26.9Q273.58-29 280.98-29L280.98-29Q284.28-29 284.98-28L284.98-28Q285.38-27.4 285.48-26.88 285.58-26.35 285.58-25.3L285.58-25.3 285.58-4.35Q285.58 1.55 281.73 4.65 277.88 7.75 270.43 7.75L270.43 7.75Q262.53 7.75 259.68 6.2L259.68 6.2Q258.43 5.5 258.43 4.75L258.43 4.75Q258.43 3.55 259.41 0.7 260.38-2.15 261.23-2.15L261.23-2.15Q261.43-2.15 262.63-1.8L262.63-1.8Q266.43-0.8 268.81-0.8 271.18-0.8 272-1.4 272.83-2 272.83-3.3ZM270.83-9.6L270.83-9.6Q271.38-9.6 271.73-10 272.08-10.4 272.08-10.9L272.08-10.9 272.08-21.2Q271.88-22.25 270.98-22.25L270.98-22.25Q269.08-22.25 269.08-16L269.08-16Q269.08-13.1 269.56-11.35 270.03-9.6 270.83-9.6ZM303.88-11.3L302.23-11.3Q302.23-8.05 305.33-8.05L305.33-8.05Q307.13-8.05 310.03-9.28 312.93-10.5 313.08-10.5L313.08-10.5Q314.03-10.5 315.58-7.65 317.13-4.8 317.13-3.45L317.13-3.45Q317.13-1.5 313.13-0.5 309.13 0.5 305.3 0.5 301.48 0.5 298.9-0.1 296.33-0.7 294.7-1.63 293.08-2.55 291.85-3.9 290.63-5.25 290.03-6.48 289.43-7.7 289.08-9.2L289.08-9.2Q288.58-11.4 288.58-13.75L288.58-13.75Q288.58-22.85 293.33-26.3L293.33-26.3Q295.68-28.05 298.58-28.75 301.48-29.45 305.43-29.45L305.43-29.45Q318.08-29.45 318.08-20.65L318.08-20.65Q318.08-11.3 303.88-11.3L303.88-11.3ZM302.13-18.6L302.13-18.6 302.13-15.3Q303.58-15.3 304.5-16.45 305.43-17.6 305.43-19.25L305.43-19.25Q305.43-22.25 303.88-22.25L303.88-22.25Q302.13-22.25 302.13-18.6Z" opacity="1" transform="matrix(1,0,0,1,0,0)" fill="#ba3b0a" class="wordmark-text-0" data-fill-palette-color="primary" id="text-0"></path></svg></g></svg></g><g transform="matrix(1,0,0,1,0,66.91657137100047)"><svg viewBox="0 0 34.02976385222515 33.45622850640113" height="33.45622850640113" width="34.02976385222515"><g transform="matrix(1,0,0,1,0,0)"><svg width="34.02976385222515" viewBox="3 -35 35.6 35" height="33.45622850640113" data-palette-color="#e8772e"><path d="M7.45-12.8L7.45 0 3 0 3-22Q3-27.4 6.48-31.2 9.95-35 15.45-35L15.45-35 26.9-35 26.9 0 22.2 0 22.2-30.6 15.45-30.6Q11.8-30.6 9.63-28.45 7.45-26.3 7.45-21.6L7.45-21.6 7.45-17.35Q10.25-20.3 15.45-20.3L15.45-20.3 20-20.3 20-15.9 15.45-15.9Q12.55-15.9 10.73-15.2 8.9-14.5 7.45-12.8L7.45-12.8ZM38.6-35L38.6 0 33.9 0 33.9-35 38.6-35Z" opacity="1" transform="matrix(1,0,0,1,0,0)" fill="#e8772e" class="slogan-text-1" data-fill-palette-color="secondary" id="text-1"></path></svg></g></svg></g></svg></g></svg></g><g transform="matrix(1,0,0,1,0,0.2509319996934991)"><svg viewBox="0 0 100.54456267388763 100.3727998774016" height="100.3727998774016" width="100.54456267388763"><g><svg xmlns="http://www.w3.org/2000/svg" viewBox="1.999999789039878 2.051249646626486 60.000000210960124 59.89750070674703" x="0" y="0" height="100.3727998774016" width="100.54456267388763" class="icon-icon-0" data-fill-palette-color="accent" id="icon-0"><g data-name="Layer 87" fill="#e8772e" data-fill-palette-color="accent"><path d="M52 22a10 10 0 0 0-9.8 8H24a10 10 0 0 1-9.84-8.24A10 10 0 0 0 22 12C21.45-1.27 2.55-1.26 2 12a10 10 0 0 0 8 9.8V42.2A10 10 0 0 0 2 52c0.55 13.27 19.45 13.26 20 0a10 10 0 0 0-8-9.8V29.79A14 14 0 0 0 24 34H42.2C44.89 45.66 61.66 44.07 62 32A10 10 0 0 0 52 22ZM6 12c0.25-7.93 11.75-7.93 12 0C17.75 19.93 6.25 19.93 6 12ZM18 52c-0.25 7.93-11.75 7.93-12 0C6.25 44.07 17.75 44.07 18 52ZM52 38c-7.93-0.25-7.93-11.75 0-12C59.93 26.25 59.93 37.75 52 38Z" fill="#e8772e" data-fill-palette-color="accent"></path></g></svg></g></svg></g></svg></g><defs></defs></svg><rect width="395.52" height="75.77854200348" fill="none" stroke="none" visibility="hidden"></rect></g></svg></g></svg>